<svg xmlns="http://www.w3.org/2000/svg" viewBox="0 0 512 512">
  <defs>
    <linearGradient id="gradient" x1="0%" y1="0%" x2="100%" y2="100%">
      <stop offset="0%" stop-color="#3B82F6" />
      <stop offset="100%" stop-color="#8B5CF6" />
    </linearGradient>
  </defs>
  <rect width="512" height="512" rx="128" fill="url(#gradient)" />
  <path d="M352 256c0 53-43 96-96 96s-96-43-96-96 43-96 96-96 96 43 96 96z" fill="white" fill-opacity="0.2" />
  <path d="M369.8 142.2L256 256l-113.8-113.8c-87.5 87.5-87.5 229.3 0 316.8s229.3 87.5 316.8 0 87.5-229.3 0-316.8c-24.6-24.6-53.4-42.1-84.2-52.6-4.1-1.4-8.6.5-10.8 4.2-2.2 3.7-1.3 8.4 1.9 11.2 29.7 25.8 48.5 63.8 48.5 106.2 0 77.4-62.6 140-140 140s-140-62.6-140-140 62.6-140 140-140c42.4 0 80.4 18.8 106.2 48.5 2.8 3.2 7.5 4.1 11.2 1.9 3.7-2.2 5.6-6.7 4.2-10.8-10.5-30.8-28-59.6-52.6-84.2-87.5-87.5-229.3-87.5-316.8 0s-87.5 229.3 0 316.8 229.3 87.5 316.8 0l-113.8-113.8 113.8-113.8z" fill="white" />
</svg>